solid ASCII
  facet normal -5.000000e-01 0.000000e+00 -8.660254e-01
    outer loop
      vertex   1.000000e+02 0.000000e+00 -1.566025e+02
      vertex   5.000000e+01 0.000000e+00 -1.277350e+02
      vertex   1.000000e+02 5.000000e+01 -1.566025e+02
    endloop
  endfacet
  facet normal -5.000000e-01 0.000000e+00 -8.660254e-01
    outer loop
      vertex   1.000000e+02 5.000000e+01 -1.566025e+02
      vertex   5.000000e+01 0.000000e+00 -1.277350e+02
      vertex   5.000000e+01 5.000000e+01 -1.277350e+02
    endloop
  endfacet
  facet normal 5.000000e-01 0.000000e+00 -8.660254e-01
    outer loop
      vertex   1.500000e+02 0.000000e+00 -1.277350e+02
      vertex   1.000000e+02 0.000000e+00 -1.566025e+02
      vertex   1.500000e+02 5.000000e+01 -1.277350e+02
    endloop
  endfacet
  facet normal 5.000000e-01 0.000000e+00 -8.660254e-01
    outer loop
      vertex   1.500000e+02 5.000000e+01 -1.277350e+02
      vertex   1.000000e+02 0.000000e+00 -1.566025e+02
      vertex   1.000000e+02 5.000000e+01 -1.566025e+02
    endloop
  endfacet
  facet normal 1.000000e+00 -0.000000e+00 0.000000e+00
    outer loop
      vertex   1.500000e+02 0.000000e+00 -7.000000e+01
      vertex   1.500000e+02 0.000000e+00 -1.277350e+02
      vertex   1.500000e+02 5.000000e+01 -7.000000e+01
    endloop
  endfacet
  facet normal 1.000000e+00 0.000000e+00 0.000000e+00
    outer loop
      vertex   1.500000e+02 5.000000e+01 -7.000000e+01
      vertex   1.500000e+02 0.000000e+00 -1.277350e+02
      vertex   1.500000e+02 5.000000e+01 -1.277350e+02
    endloop
  endfacet
  facet normal 5.000000e-01 -0.000000e+00 8.660254e-01
    outer loop
      vertex   1.000000e+02 0.000000e+00 -4.113249e+01
      vertex   1.500000e+02 0.000000e+00 -7.000000e+01
      vertex   1.000000e+02 5.000000e+01 -4.113249e+01
    endloop
  endfacet
  facet normal 5.000000e-01 0.000000e+00 8.660254e-01
    outer loop
      vertex   1.000000e+02 5.000000e+01 -4.113249e+01
      vertex   1.500000e+02 0.000000e+00 -7.000000e+01
      vertex   1.500000e+02 5.000000e+01 -7.000000e+01
    endloop
  endfacet
  facet normal -5.000000e-01 0.000000e+00 8.660254e-01
    outer loop
      vertex   5.000000e+01 0.000000e+00 -7.000000e+01
      vertex   1.000000e+02 0.000000e+00 -4.113249e+01
      vertex   5.000000e+01 5.000000e+01 -7.000000e+01
    endloop
  endfacet
  facet normal -5.000000e-01 0.000000e+00 8.660254e-01
    outer loop
      vertex   5.000000e+01 5.000000e+01 -7.000000e+01
      vertex   1.000000e+02 0.000000e+00 -4.113249e+01
      vertex   1.000000e+02 5.000000e+01 -4.113249e+01
    endloop
  endfacet
  facet normal -1.000000e+00 0.000000e+00 0.000000e+00
    outer loop
      vertex   5.000000e+01 0.000000e+00 -1.277350e+02
      vertex   5.000000e+01 0.000000e+00 -7.000000e+01
      vertex   5.000000e+01 5.000000e+01 -1.277350e+02
    endloop
  endfacet
  facet normal -1.000000e+00 0.000000e+00 0.000000e+00
    outer loop
      vertex   5.000000e+01 5.000000e+01 -1.277350e+02
      vertex   5.000000e+01 0.000000e+00 -7.000000e+01
      vertex   5.000000e+01 5.000000e+01 -7.000000e+01
    endloop
  endfacet
  facet normal -0.000000e+00 1.000000e+00 0.000000e+00
    outer loop
      vertex   5.000000e+01 5.000000e+01 -1.277350e+02
      vertex   5.000000e+01 5.000000e+01 -7.000000e+01
      vertex   1.000000e+02 5.000000e+01 -1.566025e+02
    endloop
  endfacet
  facet normal 0.000000e+00 1.000000e+00 -0.000000e+00
    outer loop
      vertex   1.000000e+02 5.000000e+01 -1.566025e+02
      vertex   5.000000e+01 5.000000e+01 -7.000000e+01
      vertex   1.000000e+02 5.000000e+01 -4.113249e+01
    endloop
  endfacet
  facet normal 0.000000e+00 1.000000e+00 0.000000e+00
    outer loop
      vertex   1.000000e+02 5.000000e+01 -1.566025e+02
      vertex   1.000000e+02 5.000000e+01 -4.113249e+01
      vertex   1.500000e+02 5.000000e+01 -1.277350e+02
    endloop
  endfacet
  facet normal 0.000000e+00 1.000000e+00 -0.000000e+00
    outer loop
      vertex   1.500000e+02 5.000000e+01 -1.277350e+02
      vertex   1.000000e+02 5.000000e+01 -4.113249e+01
      vertex   1.500000e+02 5.000000e+01 -7.000000e+01
    endloop
  endfacet
  facet normal 0.000000e+00 -1.000000e+00 0.000000e+00
    outer loop
      vertex   5.000000e+01 0.000000e+00 -7.000000e+01
      vertex   5.000000e+01 0.000000e+00 -1.277350e+02
      vertex   1.000000e+02 0.000000e+00 -4.113249e+01
    endloop
  endfacet
  facet normal 0.000000e+00 -1.000000e+00 -0.000000e+00
    outer loop
      vertex   1.000000e+02 0.000000e+00 -4.113249e+01
      vertex   5.000000e+01 0.000000e+00 -1.277350e+02
      vertex   1.000000e+02 0.000000e+00 -1.566025e+02
    endloop
  endfacet
  facet normal 0.000000e+00 -1.000000e+00 0.000000e+00
    outer loop
      vertex   1.000000e+02 0.000000e+00 -4.113249e+01
      vertex   1.000000e+02 0.000000e+00 -1.566025e+02
      vertex   1.500000e+02 0.000000e+00 -7.000000e+01
    endloop
  endfacet
  facet normal 0.000000e+00 -1.000000e+00 -0.000000e+00
    outer loop
      vertex   1.500000e+02 0.000000e+00 -7.000000e+01
      vertex   1.000000e+02 0.000000e+00 -1.566025e+02
      vertex   1.500000e+02 0.000000e+00 -1.277350e+02
    endloop
  endfacet
endsolid
